<mxfile host="app.diagrams.net" modified="2023-11-12T13:22:41.251Z" agent="Mozilla/5.0 (Windows NT 10.0; Win64; x64) AppleWebKit/537.36 (KHTML, like Gecko) Chrome/119.0.0.0 Safari/537.36" etag="jUHRGCWk4d2ckNrGtyrz" version="22.1.0" type="device">
  <diagram name="Trang-1" id="cUYZonCMDYAHGI8O7OTe">
    <mxGraphModel dx="1050" dy="613" grid="1" gridSize="10" guides="1" tooltips="1" connect="1" arrows="1" fold="1" page="1" pageScale="1" pageWidth="827" pageHeight="1169" math="0" shadow="0">
      <root>
        <mxCell id="0" />
        <mxCell id="1" parent="0" />
        <mxCell id="53gWTxO4C-6LpJeb6tcf-12" style="rounded=0;orthogonalLoop=1;jettySize=auto;html=1;exitX=1;exitY=0.25;exitDx=0;exitDy=0;entryX=0;entryY=1;entryDx=0;entryDy=0;strokeWidth=4;fillColor=#ffe6cc;strokeColor=#d79b00;" parent="1" source="53gWTxO4C-6LpJeb6tcf-1" target="53gWTxO4C-6LpJeb6tcf-7" edge="1">
          <mxGeometry relative="1" as="geometry" />
        </mxCell>
        <mxCell id="53gWTxO4C-6LpJeb6tcf-1" value="&lt;font style=&quot;font-size: 22px;&quot;&gt;Dataset&lt;/font&gt;" style="rounded=1;whiteSpace=wrap;html=1;fillColor=#ffe6cc;strokeColor=#d79b00;" parent="1" vertex="1">
          <mxGeometry x="90" y="250" width="120" height="60" as="geometry" />
        </mxCell>
        <mxCell id="53gWTxO4C-6LpJeb6tcf-14" style="rounded=0;orthogonalLoop=1;jettySize=auto;html=1;exitX=1;exitY=0.5;exitDx=0;exitDy=0;strokeWidth=4;fillColor=#ffe6cc;strokeColor=#d79b00;" parent="1" source="53gWTxO4C-6LpJeb6tcf-7" target="53gWTxO4C-6LpJeb6tcf-9" edge="1">
          <mxGeometry relative="1" as="geometry" />
        </mxCell>
        <mxCell id="53gWTxO4C-6LpJeb6tcf-7" value="&lt;font style=&quot;font-size: 22px;&quot;&gt;Train&lt;/font&gt;" style="rounded=1;whiteSpace=wrap;html=1;fillColor=#ffe6cc;strokeColor=#d79b00;" parent="1" vertex="1">
          <mxGeometry x="320" y="140" width="120" height="60" as="geometry" />
        </mxCell>
        <mxCell id="53gWTxO4C-6LpJeb6tcf-16" style="rounded=0;orthogonalLoop=1;jettySize=auto;html=1;exitX=1;exitY=0.25;exitDx=0;exitDy=0;entryX=0;entryY=0.5;entryDx=0;entryDy=0;strokeWidth=4;fillColor=#ffe6cc;strokeColor=#d79b00;" parent="1" source="53gWTxO4C-6LpJeb6tcf-8" target="53gWTxO4C-6LpJeb6tcf-10" edge="1">
          <mxGeometry relative="1" as="geometry" />
        </mxCell>
        <mxCell id="53gWTxO4C-6LpJeb6tcf-8" value="&lt;font style=&quot;font-size: 22px;&quot;&gt;Test&lt;/font&gt;" style="rounded=1;whiteSpace=wrap;html=1;fillColor=#ffe6cc;strokeColor=#d79b00;" parent="1" vertex="1">
          <mxGeometry x="320" y="360" width="120" height="60" as="geometry" />
        </mxCell>
        <mxCell id="53gWTxO4C-6LpJeb6tcf-15" style="rounded=0;orthogonalLoop=1;jettySize=auto;html=1;exitX=0.5;exitY=1;exitDx=0;exitDy=0;entryX=0.5;entryY=0;entryDx=0;entryDy=0;strokeWidth=4;fillColor=#ffe6cc;strokeColor=#d79b00;" parent="1" source="53gWTxO4C-6LpJeb6tcf-9" target="53gWTxO4C-6LpJeb6tcf-10" edge="1">
          <mxGeometry relative="1" as="geometry" />
        </mxCell>
        <mxCell id="53gWTxO4C-6LpJeb6tcf-9" value="&lt;p style=&quot;line-height: 230%;&quot;&gt;&lt;font style=&quot;font-size: 22px;&quot;&gt;Logistic Regression&lt;br&gt;&lt;span style=&quot;&quot;&gt;Decision Tree&lt;br&gt;&lt;/span&gt;SVC&lt;/font&gt;&lt;/p&gt;" style="rounded=1;whiteSpace=wrap;html=1;fillColor=#ffe6cc;strokeColor=#d79b00;" parent="1" vertex="1">
          <mxGeometry x="575" y="90" width="210" height="110" as="geometry" />
        </mxCell>
        <mxCell id="53gWTxO4C-6LpJeb6tcf-17" style="rounded=0;orthogonalLoop=1;jettySize=auto;html=1;exitX=0.5;exitY=1;exitDx=0;exitDy=0;entryX=0.5;entryY=0;entryDx=0;entryDy=0;strokeWidth=4;fillColor=#ffe6cc;strokeColor=#d79b00;" parent="1" source="53gWTxO4C-6LpJeb6tcf-10" target="53gWTxO4C-6LpJeb6tcf-11" edge="1">
          <mxGeometry relative="1" as="geometry" />
        </mxCell>
        <mxCell id="53gWTxO4C-6LpJeb6tcf-10" value="&lt;font style=&quot;font-size: 22px;&quot;&gt;Classification&amp;nbsp;&lt;/font&gt;" style="rounded=1;whiteSpace=wrap;html=1;fillColor=#ffe6cc;strokeColor=#d79b00;" parent="1" vertex="1">
          <mxGeometry x="605" y="250" width="150" height="70" as="geometry" />
        </mxCell>
        <mxCell id="53gWTxO4C-6LpJeb6tcf-11" value="&lt;font style=&quot;font-size: 22px;&quot;&gt;Prediction&lt;/font&gt;" style="rounded=1;whiteSpace=wrap;html=1;fillColor=#ffe6cc;strokeColor=#d79b00;" parent="1" vertex="1">
          <mxGeometry x="620" y="370" width="120" height="60" as="geometry" />
        </mxCell>
        <mxCell id="53gWTxO4C-6LpJeb6tcf-13" style="rounded=0;orthogonalLoop=1;jettySize=auto;html=1;exitX=1;exitY=0.75;exitDx=0;exitDy=0;entryX=0.023;entryY=0.143;entryDx=0;entryDy=0;entryPerimeter=0;strokeWidth=4;fillColor=#ffe6cc;strokeColor=#d79b00;" parent="1" source="53gWTxO4C-6LpJeb6tcf-1" target="53gWTxO4C-6LpJeb6tcf-8" edge="1">
          <mxGeometry relative="1" as="geometry" />
        </mxCell>
      </root>
    </mxGraphModel>
  </diagram>
</mxfile>
